# xmcd
#
# Track frame offsets:
#	183
#	19010
#	35783
#	57295
#	73440
#	89608
#	106308
#	130715
#	148280
#	163470
#	185858
#	199158
#
# Disc length: 2825 seconds
#
# Revision: 2
# Processed by: cddbd v1.5.1PL0 Copyright (c) Steve Scherf et al.
# Submitted via: audiograbber 1.83.01
#
DISCID=c30b070c
DTITLE=Raimundo Fagner - Raimundo Fagner
DYEAR=1993
DGENRE=MPB
TTITLE0=Revelação
TTITLE1=Fanatismo
TTITLE2=Años
TTITLE3=As Rosas Não Falam
TTITLE4=Pensamentos
TTITLE5=Cebola Cortada
TTITLE6=Noturno
TTITLE7=Eternas Ondas
TTITLE8=Mucuripe
TTITLE9=Quem Me Levará Sou Eu
TTITLE10=Traduzir-Se
TTITLE11=O último Pau De Arara
EXTD=
EXTT0=
EXTT1=
EXTT2=
EXTT3=
EXTT4=
EXTT5=
EXTT6=
EXTT7=
EXTT8=
EXTT9=
EXTT10=
EXTT11=
PLAYORDER=
